<svg xmlns="http://www.w3.org/2000/svg" data-name="Layer 1" viewBox="0 0 512 512"><path fill="#1e1f27" d="M22.5,161.23584H79.39941a7.5,7.5,0,0,0,0-15H22.5a7.5,7.5,0,0,0,0,15Zm15-30H79.39941a7.5,7.5,0,0,0,0-15H37.5a7.5,7.5,0,0,0,0,15Zm-30,60H79.39941a7.5,7.5,0,0,0,0-15H7.5a7.5,7.5,0,0,0,0,15ZM504.5,406.5H476.17725a55.88258,55.88258,0,0,0,18.064-32.54346,56.61029,56.61029,0,0,0-8.8883-41.0675l4.28479-2.54968a7.49976,7.49976,0,0,0,2.61035-10.28077,67.57876,67.57876,0,0,0-68.00782-32.21179c-6.395-15.217-12.97827-36.91034-19.35449-57.93567-3.71631-12.25586-7.52978-24.82672-11.3457-36.25293h4.07129a7.49974,7.49974,0,0,0,7.5-7.5V142.06641a7.49974,7.49974,0,0,0-7.5-7.5H367.24609a29.59677,29.59677,0,0,0-28.57861,22.04589H309.9707a7.5,7.5,0,0,0,0,15h28.69678a29.48932,29.48932,0,0,0,5.96021,11.48194,7.53049,7.53049,0,0,0,.31176,1.2959c4.17871,12.22851,11.53418,39.69482,12.0625,42.18847,8.2041,38.74463,9.35254,86.83106-31.76757,95.88623a51.97576,51.97576,0,0,1-49.72168-16.227c-15.472-17.71545-16.49915-44.97973-2.50464-66.31683a21.15387,21.15387,0,0,0-11.386-38.9942h-27.3374a17.47813,17.47813,0,0,0,.19971-2.5V109.04541a17.52,17.52,0,0,0-17.5-17.5h-97.585a17.52,17.52,0,0,0-17.5,17.5v89.38135a17.52,17.52,0,0,0,17.5,17.5h11.6803a21.0775,21.0775,0,0,0,6.14844,21.92187c-2.59045,1.20484-5.12537,2.50647-7.5846,3.92774-25.69873,14.85205-47.44287,43.77978-55.39453,73.69775-4.9519,18.6308-3.85205,35.55609,3.07447,47.73181.01013.02.02124.03919.03173.059.0542.09516.10145.19617.1565.29071.02551.04389.058.08185.08435.12507q.17724.29094.38049.56433c.04029.05426.07642.11206.118.1651a7.53311,7.53311,0,0,0,.56946.64276c.05615.0567.11524.10919.17285.16394q.24464.23272.5105.44354c.06079.04816.1211.09668.18335.14288a7.47294,7.47294,0,0,0,.70374.46717l.02661.01684a7.45013,7.45013,0,0,0,.816.40143c.05762.02429.11682.04382.175.06665q.32409.12726.66406.22583c.08569.02478.17139.04779.25806.06952.08044.02014.15759.04688.23925.06451.14051.03034.28052.0456.42066.06769.0802.01258.15906.02857.23974.03852a7.53161,7.53161,0,0,0,.92994.0642c.0144,0,.02832-.0036.04272-.00366l.04419-.00024,26.59-.34583A56.21413,56.21413,0,0,0,129.86255,406.5H7.5a7.5,7.5,0,0,0,0,15h497a7.5,7.5,0,0,0,0-15ZM434.16992,302.09717a52.59387,52.59387,0,0,1,40.89258,19.46045l-3.58887,2.13556a7.45559,7.45559,0,0,0-2.34839,1.39746L382.80762,376.4541a52.56017,52.56017,0,0,1,21.63867-65.21826l2.97363-1.76953A52.15486,52.15486,0,0,1,434.16992,302.09717Zm15.71,64.25537a11.30491,11.30491,0,0,1-22.11694.80579l18.6001-11.06818A11.31533,11.31533,0,0,1,449.87988,366.35254ZM352.7002,164.1123a14.56253,14.56253,0,0,1,14.54589-14.54589h22.86524V178.6582H367.24609A14.56253,14.56253,0,0,1,352.7002,164.1123Zm-91.07813,51.81446a6.17088,6.17088,0,0,1,.07715,12.34131H190.33545a122.20178,122.20178,0,0,0-13.96753.0039H151.3291a6.17261,6.17261,0,1,1,0-12.34521Zm-142.22266-15a2.50295,2.50295,0,0,1-2.5-2.5V109.04541a2.50295,2.50295,0,0,1,2.5-2.5h97.585a2.50295,2.50295,0,0,1,2.5,2.5v89.38135a2.50295,2.50295,0,0,1-2.5,2.5ZM88.74561,319.32715c6.98-26.26172,25.98-51.60449,48.4038-64.56348a89.84854,89.84854,0,0,1,39.58985-11.4917h77.49109c-10.65955,24.73981-7.14588,53.21833,9.98547,72.833a67.144,67.144,0,0,0,50.25488,22.521,65.11684,65.11684,0,0,0,13.99024-1.51172c41.45312-9.12891,56.80078-49.48828,43.21582-113.6416-.51074-2.41333-4.42871-17.14856-8.22473-30.06635a29.64833,29.64833,0,0,0,3.79406.25189H377.7019c4.27466,12.39905,8.61512,26.70935,12.82935,40.606,6.229,20.542,12.65381,41.71161,19.09058,57.48676a67.61911,67.61911,0,0,0-9.87183,4.82476l-2.97363,1.76953a67.40309,67.40309,0,0,0-32.49366,50.291l-114.9121,1.49463c-7.575-34.81159-31.88038-62.69977-62.04688-70.42816-20.54639-5.26465-43.88672-1.1377-64.04,11.32031a102.69573,102.69573,0,0,0-36.74512,39.87952A78.79329,78.79329,0,0,1,88.74561,319.32715Zm5.07592,32.82678c6.58643-20.24585,19.85035-37.55554,37.34937-48.37219,16.70312-10.32569,35.813-13.80518,52.43017-9.54883,23.88648,6.11987,43.37561,28.14923,50.41748,56.09753Zm84.23389,13.90576a11.29862,11.29862,0,0,1-22.218.28894Zm-11.1311,39.3949a41.36181,41.36181,0,0,1-41.22412-38.714l15.0321-.1955a26.30091,26.30091,0,0,0,52.436-.68194l15.03162-.1955A41.35749,41.35749,0,0,1,166.92432,405.45459ZM203.96924,406.5A56.21171,56.21171,0,0,0,223.205,365.47247l19.509-.25372a7.49571,7.49571,0,0,0,1.01343-.01318l120.494-1.56708a67.05554,67.05554,0,0,0,9.07153,27.20477,7.49974,7.49974,0,0,0,10.28027,2.61035l5.17554-3.07971A56.32439,56.32439,0,0,0,401.3175,406.5Zm258.62451-8.32861a41.31217,41.31217,0,0,1-60.92456-15.4859l12.97314-7.71967A26.29671,26.29671,0,0,0,434.291,390.37061a26.60574,26.60574,0,0,0,4.501.38476A26.3019,26.3019,0,0,0,459.48315,348.283l12.96338-7.714a41.30342,41.30342,0,0,1-9.85278,57.60236Z"/></svg>